<svg width="127" height="127" viewBox="0 0 127 127" fill="none" xmlns="http://www.w3.org/2000/svg">
<rect width="127" height="127" rx="63.5" fill="#F8F8F8"/>
<path fill-rule="evenodd" clip-rule="evenodd" d="M81.645 102.902C77.6956 104.686 73.4104 105.903 68.8789 106.442L67.7629 106.56C44.7497 108.706 24.0592 92.411 20.7506 69.5359L20.6037 68.4244C18.363 49.5733 28.5473 32.1087 44.6978 24.2322C44.6291 25.4179 44.5597 26.7305 44.4997 28.049C30.5354 35.6817 21.8871 51.2646 23.8805 68.0349C26.4979 90.054 46.4701 105.782 68.4893 103.164C73.1505 102.61 77.5298 101.279 81.5127 99.3143C81.5153 99.3522 81.5178 99.39 81.5202 99.4277C81.6023 100.687 81.6413 101.845 81.645 102.902ZM96.2534 92.1309C103.965 83.4323 108.172 71.6949 107.014 59.2819L106.897 58.167C104.41 37.2507 87.4537 21.5801 67.2302 19.9771C68.1009 21.1274 68.9723 22.3362 69.8414 23.5998C87.2392 26.2597 101.44 40.2292 103.619 58.5566C104.907 69.3973 101.749 79.7417 95.5829 87.7632C95.8388 89.2451 96.0628 90.7025 96.2534 92.1309Z" fill="#212D2D"/>
<path fill-rule="evenodd" clip-rule="evenodd" d="M76.3929 59.2477C70.7164 44.5417 63.7974 32.1961 57.3765 24.1198C54.1407 20.0497 51.2704 17.3674 49.0097 15.9331C47.6787 15.0886 46.9208 14.8906 46.5958 14.8457C46.3853 15.0974 45.9578 15.7534 45.5395 17.2726C45.0642 18.999 44.7616 21.3222 44.7145 24.224C42.4108 25.3462 40.2285 26.6635 38.1861 28.152C37.6791 17.6828 39.6313 10.3908 44.196 8.62868C53.6806 4.9676 70.8521 26.5665 82.5498 56.8712L83.0908 58.289C85.7435 65.3267 87.8576 72.1963 89.4159 78.6309C88.0303 77.6291 86.3259 77.2947 84.7815 77.8885C83.9787 78.1972 83.3117 78.7211 82.8061 79.3879C81.2381 73.0693 79.1006 66.2624 76.3929 59.2477ZM84.7453 88.5468C85.333 91.9517 85.7214 95.1362 85.9108 98.0421C86.2488 103.231 85.9252 107.146 85.2145 109.727C84.7963 111.246 84.3676 111.902 84.157 112.154C83.8317 112.108 83.0743 111.91 81.7443 111.067C79.9426 109.923 77.753 107.988 75.3 105.188C73.2245 105.758 71.0807 106.18 68.8786 106.442C68.5404 106.482 68.2026 106.518 67.8653 106.55C74.8209 115.428 81.5267 120.087 86.3331 118.453L86.5571 118.371C92.6504 116.019 94.0886 103.814 91.2364 87.3507C90.7141 88.1327 89.9864 88.7467 89.0889 89.0918C87.6509 89.6447 86.0742 89.3929 84.7453 88.5468Z" fill="#212D2D"/>
<path d="M59.2712 64.8598C59.2712 64.8598 74.1002 71.366 85.4827 80.3227C86.1005 80.8088 87.021 80.5288 87.2493 79.7766C91.0347 67.3078 95.5712 53.8598 95.5712 53.8598" stroke="#212D2D" stroke-width="5.5"/>
<circle cx="34.0457" cy="59.9098" r="3.85" fill="#212D2D"/>
<circle cx="37.8957" cy="47.2597" r="3.3" fill="#212D2D"/>
<circle cx="43.3957" cy="38.4598" r="2.2" fill="#212D2D"/>
</svg>
